<?xml version="1.0" encoding="utf-8"?>
<!-- Generator: Adobe Illustrator 25.3.1, SVG Export Plug-In . SVG Version: 6.00 Build 0)  -->
<svg version="1.1" id="Шар_1" xmlns="http://www.w3.org/2000/svg" xmlns:xlink="http://www.w3.org/1999/xlink" x="0px" y="0px"
	 viewBox="0 0 367.39 362.51" style="enable-background:new 0 0 367.39 362.51;" xml:space="preserve">
<style type="text/css">
	.st0{fill-rule:evenodd;clip-rule:evenodd;fill:#FF042F;}
</style>
<path class="st0" d="M292.36,252.62c0,4.94,2.9,6.12,6.45,2.63l65.92-64.91c3.54-3.5,3.55-9.17,0.01-12.67c0,0-0.01-0.01-0.01-0.01
	l-65.92-64.92c-3.54-3.49-6.45-2.31-6.45,2.63V252.62L292.36,252.62z M142.38,76.28c5.01,0,9.12,4.03,9.12,8.97v49.8
	c0,4.94,4.09,8.97,9.11,8.97h49.96c5.01,0,9.08-4.01,9.11-8.97v-49.8c0-4.94,4.1-8.97,9.12-8.97h28.13c5,0,6.21-2.86,2.66-6.35
	L191.22,2.62c-3.57-3.49-9.31-3.49-12.88,0l-68.37,67.31c-3.54,3.49-2.34,6.35,2.66,6.35L142.38,76.28L142.38,76.28z M76.63,110.94
	c0-4.94-2.91-6.12-6.45-2.63L2.65,174.8c-3.54,3.51-3.54,9.18,0,12.69l67.53,66.5c3.54,3.48,6.45,2.31,6.45-2.63L76.63,110.94
	L76.63,110.94z M227.21,287.82c-5.03,0-9.11-4.02-9.13-8.99v-52.81c-0.02-4.96-4.09-8.97-9.1-8.98h-49.95
	c-5.03,0-9.11,4.02-9.13,8.99v52.81c-0.02,4.96-4.09,8.98-9.11,8.98h-28.15c-5,0-6.21,2.85-2.66,6.34l66.76,65.74
	c3.57,3.48,9.32,3.48,12.89,0l66.77-65.74c3.54-3.49,2.35-6.34-2.66-6.34C253.74,287.82,227.21,287.82,227.21,287.82z"/>
</svg>
